HIERARCHY
ROOT Hips
{
	OFFSET	0.00	0.00	0.00
	CHANNELS 6 Xposition Yposition Zposition Zrotation Xrotation Yrotation
	JOINT LeftUpLeg
	{
		OFFSET	 0.126116	-0.014019	-0.065224
		CHANNELS 3 Zrotation Xrotation Yrotation
		JOINT LeftLeg
		{
			OFFSET	 0.000000	 0.000000	 0.569914
			CHANNELS 3 Zrotation Xrotation Yrotation
			JOINT LeftFoot
			{
				OFFSET	 0.000000	 0.000000	 0.544423
				CHANNELS 3 Zrotation Xrotation Yrotation
				JOINT LeftToeBase
				{
					OFFSET	 0.000000	 0.000000	 0.207117
					CHANNELS 3 Zrotation Xrotation Yrotation
					End Site
					{
						OFFSET	 0.000000	 0.000000	 0.207117
					}
				}
			}
		}
	}
	JOINT RightUpLeg
	{
		OFFSET	-0.124023	-0.008373	-0.065224
		CHANNELS 3 Zrotation Xrotation Yrotation
		JOINT RightLeg
		{
			OFFSET	 0.000000	 0.000000	 0.570047
			CHANNELS 3 Zrotation Xrotation Yrotation
			JOINT RightFoot
			{
				OFFSET	 0.000000	 0.000000	 0.544354
				CHANNELS 3 Zrotation Xrotation Yrotation
				JOINT RightToeBase
				{
					OFFSET	 0.000000	 0.000000	 0.207540
					CHANNELS 3 Zrotation Xrotation Yrotation
					End Site
					{
						OFFSET	 0.000000	 0.000000	 0.207540
					}
				}
			}
		}
	}
	JOINT Spine
	{
		OFFSET	 0.000184	-0.007763	 0.117403
		CHANNELS 3 Zrotation Xrotation Yrotation
		JOINT Spine1
		{
			OFFSET	 0.000000	 0.000000	 0.137269
			CHANNELS 3 Zrotation Xrotation Yrotation
			JOINT Spine2
			{
				OFFSET	 0.000000	 0.000000	 0.156879
				CHANNELS 3 Zrotation Xrotation Yrotation
				JOINT LeftShoulder
				{
					OFFSET	 0.080501	-0.002496	 0.160144
					CHANNELS 3 Zrotation Xrotation Yrotation
					JOINT LeftArm
					{
						OFFSET	 0.000000	 0.000000	 0.164363
						CHANNELS 3 Zrotation Xrotation Yrotation
						JOINT LeftForeArm
						{
							OFFSET	 0.000000	 0.000000	 0.364576
							CHANNELS 3 Zrotation Xrotation Yrotation
							JOINT LeftHand
							{
								OFFSET	 0.000000	 0.000000	 0.360812
								CHANNELS 3 Zrotation Xrotation Yrotation
								JOINT LeftHandIndex1
								{
									OFFSET	 0.000000	 0.000000	 0.086006
									CHANNELS 3 Zrotation Xrotation Yrotation
									JOINT LeftHandIndex2
									{
										OFFSET	 0.000000	 0.000000	 0.047236
										CHANNELS 3 Zrotation Xrotation Yrotation
										JOINT LeftHandIndex3
										{
											OFFSET	-0.004284	-0.000551	 0.038166
											CHANNELS 3 Zrotation Xrotation Yrotation
											End Site
											{
												OFFSET	-0.004284	-0.000551	 0.038166
											}
										}
									}
								}
							}
						}
					}
				}
				JOINT Neck
				{
					OFFSET	 0.000000	 0.000000	 0.176489
					CHANNELS 3 Zrotation Xrotation Yrotation
					JOINT Head
					{
						OFFSET	 0.000000	-0.001747	 0.077940
						CHANNELS 3 Zrotation Xrotation Yrotation
						End Site
						{
							OFFSET	 0.000000	-0.001747	 0.077940
						}
					}
				}
				JOINT RightShoulder
				{
					OFFSET	-0.080363	 0.000306	 0.159706
					CHANNELS 3 Zrotation Xrotation Yrotation
					JOINT RightArm
					{
						OFFSET	 0.000000	 0.000000	 0.164196
						CHANNELS 3 Zrotation Xrotation Yrotation
						JOINT RightForeArm
						{
							OFFSET	 0.000000	 0.000000	 0.365611
							CHANNELS 3 Zrotation Xrotation Yrotation
							JOINT RightHand
							{
								OFFSET	 0.000000	 0.000000	 0.360648
								CHANNELS 3 Zrotation Xrotation Yrotation
								JOINT RightHandIndex1
								{
									OFFSET	 0.000000	 0.000000	 0.069977
									CHANNELS 3 Zrotation Xrotation Yrotation
									JOINT RightHandIndex2
									{
										OFFSET	 0.000000	 0.000000	 0.052305
										CHANNELS 3 Zrotation Xrotation Yrotation
										JOINT RightHandIndex3
										{
											OFFSET	 0.009002	-0.000782	 0.042196
											CHANNELS 3 Zrotation Xrotation Yrotation
											End Site
											{
												OFFSET	 0.009002	-0.000782	 0.042196
											}
										}
									}
								}
							}
						}
					}
				}
			}
		}
	}
}
MOTION
Frames:    6
Frame Time: 0.03333334
-0.000005	 0.017643	 1.299421	-0.003113	 0.008108	 0.062574	-18.231440	-1.993384	-179.162600	 1.464580	-12.633760	-0.738832	-3.048713	 66.406590	-3.460272	-2.385833	 28.452760	 0.000004	 18.112060	-2.293057	 179.137500	-1.450235	-12.720320	 0.730386	 3.025097	 66.256960	 3.315421	 2.384658	 28.388730	 0.000004	-1.221950	 2.704934	 0.167479	-0.601323	 3.692750	-0.280019	 1.849869	-4.701232	 0.426278	-91.776220	 78.527490	-180.000000	 58.668190	 41.019200	-43.868540	-7.372751	 5.982363	-15.156480	-28.533900	 2.946200	-4.254459	-2.635965	 4.993658	 6.788941	-5.165319	 0.784187	 3.516649	-5.225038	 0.466231	 0.424329	-0.000002	-3.783157	-0.089647	 1.797385	 5.020599	-0.078819	 89.782170	 78.203870	 179.999900	 6.400718	 13.386190	 92.654020	-33.999450	-3.356500	 10.022800	 3.790960	 2.430034	-6.116648	 6.112037	 4.509576	-0.364401	 4.968462	 1.518543	-9.347576	 5.168945	 0.703820	 2.021906
-0.000009	 0.017608	 1.300050	-0.003113	 0.008108	 0.062574	-18.227950	-1.993372	-179.162800	 1.464581	-12.633780	-0.738835	-3.059197	 66.307850	-3.447633	-2.385833	 28.452760	 0.000004	 18.108630	-2.293029	 179.137700	-1.450235	-12.720310	 0.730387	 3.034947	 66.158240	 3.303432	 2.384658	 28.388730	 0.000004	-1.221950	 2.704934	 0.167479	-0.601323	 3.692736	-0.280018	 1.849874	-4.701219	 0.426273	-91.776280	 78.527490	-179.999900	 58.675120	 41.014070	-43.871080	-7.372819	 5.982239	-15.156080	-28.506900	 3.289871	-4.255639	-2.635965	 4.993658	 6.788941	-5.165319	 0.784187	 3.516649	-5.225038	 0.466231	 0.424329	-0.000002	-3.783157	-0.089647	 1.797385	 5.020599	-0.078819	 89.782180	 78.203900	 179.999900	 6.412362	 13.449670	 92.665500	-34.046340	-3.366924	 10.026230	 3.829343	 2.738425	-6.137848	 6.112037	 4.509576	-0.364401	 4.968462	 1.518543	-9.347576	 5.168945	 0.703820	 2.021906
-0.000014	 0.017567	 1.300774	-0.003113	 0.008108	 0.062574	-18.223950	-1.993293	-179.163100	 1.464581	-12.633650	-0.738824	-3.071081	 66.194500	-3.433292	-2.385833	 28.452760	 0.000004	 18.104660	-2.292960	 179.138000	-1.450233	-12.720220	 0.730380	 3.046058	 66.044860	 3.289827	 2.384658	 28.388730	 0.000004	-1.221949	 2.704934	 0.167479	-0.601322	 3.692730	-0.280059	 1.849877	-4.701216	 0.426296	-91.776250	 78.527470	-180.000000	 58.689430	 41.006920	-43.882320	-7.373065	 5.980684	-15.152020	-28.477410	 3.681691	-4.257339	-2.635965	 4.993658	 6.788941	-5.165319	 0.784187	 3.516649	-5.225038	 0.466231	 0.424329	-0.000002	-3.783157	-0.089647	 1.797385	 5.020599	-0.078819	 89.782180	 78.203900	 179.999900	 6.427605	 13.536730	 92.680070	-34.106250	-3.380325	 10.030820	 3.880783	 3.076825	-6.166132	 6.112037	 4.509576	-0.364401	 4.968462	 1.518543	-9.347576	 5.168945	 0.703820	 2.021906
-0.000019	 0.017526	 1.301485	-0.003121	 0.008103	 0.062561	-18.219920	-1.993336	-179.163400	 1.464579	-12.633780	-0.738833	-3.082521	 66.083350	-3.419333	-2.385833	 28.452760	 0.000004	 18.100680	-2.292995	 179.138300	-1.450234	-12.720340	 0.730387	 3.056774	 65.933690	 3.276588	 2.384658	 28.388730	 0.000004	-1.221946	 2.704934	 0.167486	-0.601319	 3.692745	-0.280034	 1.849883	-4.701227	 0.426282	-91.776190	 78.527450	-180.000000	 58.711040	 40.998860	-43.903270	-7.373860	 5.977937	-15.144810	-28.450930	 4.049902	-4.259356	-2.635965	 4.993658	 6.788941	-5.165319	 0.784187	 3.516649	-5.225038	 0.466231	 0.424329	-0.000002	-3.783157	-0.089647	 1.797385	 5.020599	-0.078819	 89.782100	 78.203900	 180.000000	 6.443543	 13.622150	 92.694630	-34.165210	-3.393828	 10.036320	 3.930300	 3.393460	-6.193664	 6.112037	 4.509576	-0.364401	 4.968462	 1.518543	-9.347576	 5.168945	 0.703820	 2.021906
-0.000024	 0.017489	 1.302112	-0.003113	 0.008108	 0.062574	-18.216370	-1.993367	-179.163700	 1.464582	-12.633890	-0.738839	-3.092571	 65.984800	-3.407065	-2.385833	 28.452760	 0.000004	 18.097200	-2.293023	 179.138500	-1.450236	-12.720430	 0.730392	 3.066243	 65.835110	 3.264937	 2.384658	 28.388730	 0.000004	-1.221949	 2.704934	 0.167479	-0.601323	 3.692741	-0.280049	 1.849879	-4.701225	 0.426289	-91.776310	 78.527470	-179.999900	 58.737000	 40.991280	-43.931110	-7.374887	 5.974583	-15.136050	-28.430490	 4.350044	-4.261351	-2.635965	 4.993658	 6.788941	-5.165319	 0.784187	 3.516649	-5.225038	 0.466231	 0.424329	-0.000002	-3.783157	-0.089647	 1.797385	 5.020599	-0.078819	 89.782180	 78.203870	 179.999900	 6.453190	 13.708820	 92.706000	-34.221210	-3.406963	 10.042400	 3.978791	 3.659483	-6.216552	 6.112037	 4.509576	-0.364401	 4.968462	 1.518543	-9.347576	 5.168945	 0.703820	 2.021906
-0.000028	 0.017444	 1.302859	-0.003121	 0.008103	 0.062561	-18.212080	-1.993233	-179.164000	 1.464578	-12.633660	-0.738825	-3.104366	 65.866680	-3.392588	-2.385833	 28.452760	 0.000004	 18.092910	-2.292886	 179.138800	-1.450237	-12.720220	 0.730381	 3.077213	 65.716980	 3.251219	 2.384658	 28.388730	 0.000004	-1.221946	 2.704934	 0.167486	-0.601319	 3.692757	-0.280026	 1.849876	-4.701230	 0.426278	-91.776180	 78.527450	 180.000000	 58.776700	 40.982870	-43.976670	-7.376257	 5.969769	-15.123480	-28.411410	 4.658662	-4.263815	-2.635965	 4.993658	 6.788941	-5.165319	 0.784187	 3.516649	-5.225038	 0.466231	 0.424329	-0.000002	-3.783157	-0.089647	 1.797385	 5.020599	-0.078819	 89.782160	 78.203900	 179.999900	 6.453154	 13.818140	 92.713970	-34.290060	-3.424217	 10.053030	 4.036034	 3.935210	-6.242569	 6.112037	 4.509576	-0.364401	 4.968462	 1.518543	-9.347576	 5.168945	 0.703820	 2.021906
